<mxfile modified="2023-06-30T15:58:28.193Z" host="app.diagrams.net" agent="Mozilla/5.0 (Windows NT 10.0; Win64; x64) AppleWebKit/537.36 (KHTML, like Gecko) Chrome/114.0.0.0 Safari/537.36 Edg/114.0.1823.58" etag="pkBXKl3LATAsFymr8AUc" version="21.5.2" type="github">
  <diagram id="Ht1M8jgEwFfnCIfOTk4-" name="Page-1">
    <mxGraphModel dx="1589" dy="871" grid="1" gridSize="10" guides="1" tooltips="1" connect="1" arrows="1" fold="1" page="1" pageScale="1" pageWidth="1169" pageHeight="827" math="0" shadow="0">
      <root>
        <mxCell id="0" />
        <mxCell id="1" parent="0" />
        <mxCell id="bKz0auPCCJFVJiTbavnk-3" value="" style="edgeStyle=orthogonalEdgeStyle;rounded=0;orthogonalLoop=1;jettySize=auto;html=1;" edge="1" parent="1" source="bKz0auPCCJFVJiTbavnk-1" target="bKz0auPCCJFVJiTbavnk-2">
          <mxGeometry relative="1" as="geometry" />
        </mxCell>
        <mxCell id="bKz0auPCCJFVJiTbavnk-8" value="" style="edgeStyle=orthogonalEdgeStyle;rounded=0;orthogonalLoop=1;jettySize=auto;html=1;" edge="1" parent="1" source="bKz0auPCCJFVJiTbavnk-1" target="bKz0auPCCJFVJiTbavnk-4">
          <mxGeometry relative="1" as="geometry" />
        </mxCell>
        <mxCell id="bKz0auPCCJFVJiTbavnk-1" value="" style="sketch=0;points=[[0,0,0],[0.25,0,0],[0.5,0,0],[0.75,0,0],[1,0,0],[0,1,0],[0.25,1,0],[0.5,1,0],[0.75,1,0],[1,1,0],[0,0.25,0],[0,0.5,0],[0,0.75,0],[1,0.25,0],[1,0.5,0],[1,0.75,0]];outlineConnect=0;fontColor=#232F3E;gradientColor=#945DF2;gradientDirection=north;fillColor=#5A30B5;strokeColor=#ffffff;dashed=0;verticalLabelPosition=bottom;verticalAlign=top;align=center;html=1;fontSize=12;fontStyle=0;aspect=fixed;shape=mxgraph.aws4.resourceIcon;resIcon=mxgraph.aws4.kinesis_data_firehose;" vertex="1" parent="1">
          <mxGeometry x="160" y="307" width="78" height="78" as="geometry" />
        </mxCell>
        <mxCell id="bKz0auPCCJFVJiTbavnk-2" value="" style="sketch=0;outlineConnect=0;fontColor=#232F3E;gradientColor=none;fillColor=#4D27AA;strokeColor=none;dashed=0;verticalLabelPosition=bottom;verticalAlign=top;align=center;html=1;fontSize=12;fontStyle=0;aspect=fixed;pointerEvents=1;shape=mxgraph.aws4.glue_data_catalog;" vertex="1" parent="1">
          <mxGeometry x="163" y="160" width="72" height="78" as="geometry" />
        </mxCell>
        <mxCell id="bKz0auPCCJFVJiTbavnk-9" value="" style="edgeStyle=orthogonalEdgeStyle;rounded=0;orthogonalLoop=1;jettySize=auto;html=1;" edge="1" parent="1" source="bKz0auPCCJFVJiTbavnk-4" target="bKz0auPCCJFVJiTbavnk-5">
          <mxGeometry relative="1" as="geometry" />
        </mxCell>
        <mxCell id="bKz0auPCCJFVJiTbavnk-15" style="edgeStyle=orthogonalEdgeStyle;rounded=0;orthogonalLoop=1;jettySize=auto;html=1;entryX=0;entryY=0.5;entryDx=0;entryDy=0;entryPerimeter=0;" edge="1" parent="1" source="bKz0auPCCJFVJiTbavnk-4" target="bKz0auPCCJFVJiTbavnk-14">
          <mxGeometry relative="1" as="geometry" />
        </mxCell>
        <mxCell id="bKz0auPCCJFVJiTbavnk-4" value="" style="sketch=0;points=[[0,0,0],[0.25,0,0],[0.5,0,0],[0.75,0,0],[1,0,0],[0,1,0],[0.25,1,0],[0.5,1,0],[0.75,1,0],[1,1,0],[0,0.25,0],[0,0.5,0],[0,0.75,0],[1,0.25,0],[1,0.5,0],[1,0.75,0]];outlineConnect=0;fontColor=#232F3E;gradientColor=#60A337;gradientDirection=north;fillColor=#277116;strokeColor=#ffffff;dashed=0;verticalLabelPosition=bottom;verticalAlign=top;align=center;html=1;fontSize=12;fontStyle=0;aspect=fixed;shape=mxgraph.aws4.resourceIcon;resIcon=mxgraph.aws4.s3;" vertex="1" parent="1">
          <mxGeometry x="399" y="307" width="78" height="78" as="geometry" />
        </mxCell>
        <mxCell id="bKz0auPCCJFVJiTbavnk-7" value="" style="edgeStyle=orthogonalEdgeStyle;rounded=0;orthogonalLoop=1;jettySize=auto;html=1;" edge="1" parent="1" source="bKz0auPCCJFVJiTbavnk-5">
          <mxGeometry relative="1" as="geometry">
            <mxPoint x="241" y="493" as="targetPoint" />
          </mxGeometry>
        </mxCell>
        <mxCell id="bKz0auPCCJFVJiTbavnk-26" value="" style="edgeStyle=orthogonalEdgeStyle;rounded=0;orthogonalLoop=1;jettySize=auto;html=1;" edge="1" parent="1" source="bKz0auPCCJFVJiTbavnk-5" target="bKz0auPCCJFVJiTbavnk-17">
          <mxGeometry relative="1" as="geometry" />
        </mxCell>
        <mxCell id="bKz0auPCCJFVJiTbavnk-5" value="" style="outlineConnect=0;dashed=0;verticalLabelPosition=bottom;verticalAlign=top;align=center;html=1;shape=mxgraph.aws3.lambda_function;fillColor=#F58534;gradientColor=none;" vertex="1" parent="1">
          <mxGeometry x="403.5" y="457" width="69" height="72" as="geometry" />
        </mxCell>
        <mxCell id="bKz0auPCCJFVJiTbavnk-12" value="&lt;font style=&quot;font-size: 14px;&quot;&gt;Subscription Management&lt;/font&gt;" style="whiteSpace=wrap;html=1;aspect=fixed;" vertex="1" parent="1">
          <mxGeometry x="160" y="453" width="80" height="80" as="geometry" />
        </mxCell>
        <mxCell id="bKz0auPCCJFVJiTbavnk-23" value="" style="edgeStyle=orthogonalEdgeStyle;rounded=0;orthogonalLoop=1;jettySize=auto;html=1;" edge="1" parent="1" source="bKz0auPCCJFVJiTbavnk-14" target="bKz0auPCCJFVJiTbavnk-16">
          <mxGeometry relative="1" as="geometry" />
        </mxCell>
        <mxCell id="bKz0auPCCJFVJiTbavnk-14" value="" style="sketch=0;points=[[0,0,0],[0.25,0,0],[0.5,0,0],[0.75,0,0],[1,0,0],[0,1,0],[0.25,1,0],[0.5,1,0],[0.75,1,0],[1,1,0],[0,0.25,0],[0,0.5,0],[0,0.75,0],[1,0.25,0],[1,0.5,0],[1,0.75,0]];outlineConnect=0;fontColor=#232F3E;gradientColor=#945DF2;gradientDirection=north;fillColor=#5A30B5;strokeColor=#ffffff;dashed=0;verticalLabelPosition=bottom;verticalAlign=top;align=center;html=1;fontSize=12;fontStyle=0;aspect=fixed;shape=mxgraph.aws4.resourceIcon;resIcon=mxgraph.aws4.kinesis_data_firehose;" vertex="1" parent="1">
          <mxGeometry x="718" y="307" width="78" height="78" as="geometry" />
        </mxCell>
        <mxCell id="bKz0auPCCJFVJiTbavnk-16" value="" style="sketch=0;points=[[0,0,0],[0.25,0,0],[0.5,0,0],[0.75,0,0],[1,0,0],[0,1,0],[0.25,1,0],[0.5,1,0],[0.75,1,0],[1,1,0],[0,0.25,0],[0,0.5,0],[0,0.75,0],[1,0.25,0],[1,0.5,0],[1,0.75,0]];outlineConnect=0;fontColor=#232F3E;gradientColor=#945DF2;gradientDirection=north;fillColor=#5A30B5;strokeColor=#ffffff;dashed=0;verticalLabelPosition=bottom;verticalAlign=top;align=center;html=1;fontSize=12;fontStyle=0;aspect=fixed;shape=mxgraph.aws4.resourceIcon;resIcon=mxgraph.aws4.redshift;" vertex="1" parent="1">
          <mxGeometry x="718" y="451" width="78" height="78" as="geometry" />
        </mxCell>
        <mxCell id="bKz0auPCCJFVJiTbavnk-22" value="" style="edgeStyle=orthogonalEdgeStyle;rounded=0;orthogonalLoop=1;jettySize=auto;html=1;" edge="1" parent="1" source="bKz0auPCCJFVJiTbavnk-17" target="bKz0auPCCJFVJiTbavnk-16">
          <mxGeometry relative="1" as="geometry">
            <Array as="points">
              <mxPoint x="670" y="494" />
              <mxPoint x="670" y="494" />
            </Array>
          </mxGeometry>
        </mxCell>
        <mxCell id="bKz0auPCCJFVJiTbavnk-17" value="" style="sketch=0;points=[[0,0,0],[0.25,0,0],[0.5,0,0],[0.75,0,0],[1,0,0],[0,1,0],[0.25,1,0],[0.5,1,0],[0.75,1,0],[1,1,0],[0,0.25,0],[0,0.5,0],[0,0.75,0],[1,0.25,0],[1,0.5,0],[1,0.75,0]];outlineConnect=0;fontColor=#232F3E;gradientColor=#945DF2;gradientDirection=north;fillColor=#5A30B5;strokeColor=#ffffff;dashed=0;verticalLabelPosition=bottom;verticalAlign=top;align=center;html=1;fontSize=12;fontStyle=0;aspect=fixed;shape=mxgraph.aws4.resourceIcon;resIcon=mxgraph.aws4.kinesis_data_firehose;" vertex="1" parent="1">
          <mxGeometry x="560" y="454" width="78" height="78" as="geometry" />
        </mxCell>
        <mxCell id="bKz0auPCCJFVJiTbavnk-24" value="&lt;font style=&quot;font-size: 14px;&quot;&gt;Glue Data Catalog&lt;/font&gt;" style="text;html=1;strokeColor=none;fillColor=none;align=center;verticalAlign=middle;whiteSpace=wrap;rounded=0;" vertex="1" parent="1">
          <mxGeometry x="210" y="238" width="70" height="42" as="geometry" />
        </mxCell>
        <mxCell id="bKz0auPCCJFVJiTbavnk-25" value="&lt;font style=&quot;font-size: 14px;&quot;&gt;Firehose&lt;/font&gt;" style="text;html=1;strokeColor=none;fillColor=none;align=center;verticalAlign=middle;whiteSpace=wrap;rounded=0;" vertex="1" parent="1">
          <mxGeometry x="160" y="385" width="81" height="45" as="geometry" />
        </mxCell>
        <mxCell id="bKz0auPCCJFVJiTbavnk-27" value="&lt;font style=&quot;font-size: 14px;&quot;&gt;Firehose&lt;/font&gt;" style="text;html=1;strokeColor=none;fillColor=none;align=center;verticalAlign=middle;whiteSpace=wrap;rounded=0;" vertex="1" parent="1">
          <mxGeometry x="557" y="529" width="93" height="51" as="geometry" />
        </mxCell>
        <mxCell id="bKz0auPCCJFVJiTbavnk-28" value="&lt;font style=&quot;font-size: 14px;&quot;&gt;Redshift&lt;/font&gt;" style="text;html=1;strokeColor=none;fillColor=none;align=center;verticalAlign=middle;whiteSpace=wrap;rounded=0;" vertex="1" parent="1">
          <mxGeometry x="718" y="529" width="81" height="45" as="geometry" />
        </mxCell>
        <mxCell id="bKz0auPCCJFVJiTbavnk-29" value="&lt;font style=&quot;font-size: 14px;&quot;&gt;Firehose&lt;/font&gt;" style="text;html=1;strokeColor=none;fillColor=none;align=center;verticalAlign=middle;whiteSpace=wrap;rounded=0;" vertex="1" parent="1">
          <mxGeometry x="750" y="370" width="93" height="51" as="geometry" />
        </mxCell>
      </root>
    </mxGraphModel>
  </diagram>
</mxfile>
